<svg xmlns="http://www.w3.org/2000/svg" viewBox="0 0 64 64" role="img">
  <rect width="64" height="64" rx="14" fill="#05070D"/>
  <circle cx="32" cy="31" r="21" fill="#071426"/>
  <path d="M18 22c4-8 24-8 28 0 4 7 2 24-14 30C16 46 14 29 18 22Z" fill="#D8DDE8"/>
  <path d="M21 24c5-6 17-6 22 0 2 4 0 13-11 17-11-4-13-13-11-17Z" fill="#D8B86A"/>
  <circle cx="26" cy="29" r="4" fill="#05070D"/>
  <circle cx="38" cy="29" r="4" fill="#05070D"/>
  <path d="M32 33l5 4-5 3-5-3 5-4Z" fill="#071426"/>
</svg>
